<svg height="20" viewBox="0 0 20 20" width="20" xmlns="http://www.w3.org/2000/svg"><defs><style>path {display: none;}path:target {display: inline;}</style></defs>
  <path id="darkblue" d="m16.7368572 1.93340314h-1.8634873v-1.05263036c0-.47260943-.3788649-.88077278-.8631182-.88077278-.463114 0-.8631181.38668063-.8631181.88077278v1.05263036h-6.27250634v-1.05263036c0-.47260943-.37894694-.88077278-.86315919-.88077278s-.86315919.38668063-.86315919.88077278v1.05263036h-1.88515585c-1.81052653 0-3.26315303 1.50375916-3.26315303 3.32975916v11.4070995c0 1.8474345 1.47368367 3.3297382 3.26315303 3.3297382h13.47370417c1.8104855 0 3.2631428-1.5037696 3.2631428-3.3297382v-11.4070995c0-1.826-1.4736939-3.32975916-3.2631428-3.32975916zm-13.2187072 2.06659686h1.64201482v1.00527c0 .45134.36928.84113.84113.84113.47186 0 .84114-.36928.84114-.84113v-1.00527h6.34369558v1.00527c0 .45134.3693.84113.8411.84113.4514 0 .8412-.36928.8412-.84113v-1.00527h1.7797096c.8411 0 1.5181.67702 1.5181 1.51816v1.94898h-16.16624v-1.94898c0-.84114.67702-1.51816 1.51815-1.51816zm13.12999 14h-13.12999c-.84113 0-1.51815-.6939138-1.51815-1.5560273v-7.4439727h16.16624v7.4439727c0 .8621135-.677 1.5560273-1.5181 1.5560273z" fill="#171835"/>
  <path id="lightblue" d="m16.7368572 1.93340314h-1.8634873v-1.05263036c0-.47260943-.3788649-.88077278-.8631182-.88077278-.463114 0-.8631181.38668063-.8631181.88077278v1.05263036h-6.27250634v-1.05263036c0-.47260943-.37894694-.88077278-.86315919-.88077278s-.86315919.38668063-.86315919.88077278v1.05263036h-1.88515585c-1.81052653 0-3.26315303 1.50375916-3.26315303 3.32975916v11.4070995c0 1.8474345 1.47368367 3.3297382 3.26315303 3.3297382h13.47370417c1.8104855 0 3.2631428-1.5037696 3.2631428-3.3297382v-11.4070995c0-1.826-1.4736939-3.32975916-3.2631428-3.32975916zm-13.2187072 2.06659686h1.64201482v1.00527c0 .45134.36928.84113.84113.84113.47186 0 .84114-.36928.84114-.84113v-1.00527h6.34369558v1.00527c0 .45134.3693.84113.8411.84113.4514 0 .8412-.36928.8412-.84113v-1.00527h1.7797096c.8411 0 1.5181.67702 1.5181 1.51816v1.94898h-16.16624v-1.94898c0-.84114.67702-1.51816 1.51815-1.51816zm13.12999 14h-13.12999c-.84113 0-1.51815-.6939138-1.51815-1.5560273v-7.4439727h16.16624v7.4439727c0 .8621135-.677 1.5560273-1.5181 1.5560273z" fill="#c0c8eb"/>
  <path id="orange" d="m16.7368572 1.93340314h-1.8634873v-1.05263036c0-.47260943-.3788649-.88077278-.8631182-.88077278-.463114 0-.8631181.38668063-.8631181.88077278v1.05263036h-6.27250634v-1.05263036c0-.47260943-.37894694-.88077278-.86315919-.88077278s-.86315919.38668063-.86315919.88077278v1.05263036h-1.88515585c-1.81052653 0-3.26315303 1.50375916-3.26315303 3.32975916v11.4070995c0 1.8474345 1.47368367 3.3297382 3.26315303 3.3297382h13.47370417c1.8104855 0 3.2631428-1.5037696 3.2631428-3.3297382v-11.4070995c0-1.826-1.4736939-3.32975916-3.2631428-3.32975916zm-13.2187072 2.06659686h1.64201482v1.00527c0 .45134.36928.84113.84113.84113.47186 0 .84114-.36928.84114-.84113v-1.00527h6.34369558v1.00527c0 .45134.3693.84113.8411.84113.4514 0 .8412-.36928.8412-.84113v-1.00527h1.7797096c.8411 0 1.5181.67702 1.5181 1.51816v1.94898h-16.16624v-1.94898c0-.84114.67702-1.51816 1.51815-1.51816zm13.12999 14h-13.12999c-.84113 0-1.51815-.6939138-1.51815-1.5560273v-7.4439727h16.16624v7.4439727c0 .8621135-.677 1.5560273-1.5181 1.5560273z" fill="#f45400"/>
</svg>