<svg height="19" viewBox="0 0 19 19" width="19" xmlns="http://www.w3.org/2000/svg"><defs><style>path {display: none;}path:target {display: inline;}</style></defs>
  <path id="darkblue" d="m9.5 19c-5.24137468 0-9.5-4.2586047-9.5-9.5 0-5.24137468 4.25862532-9.5 9.5-9.5 5.2413953 0 9.5 4.25862532 9.5 9.5 0 5.2413953-4.2586047 9.5-9.5 9.5zm0-17c-4.14109975 0-7.5 3.35890025-7.5 7.5 0 4.1410591 3.35890025 7.5 7.5 7.5 4.1410591 0 7.5-3.3589409 7.5-7.5 0-4.14109975-3.3589409-7.5-7.5-7.5zm-2.77882098 12.5c-.21504375 0-.4300875-.0978424-.60212249-.2689318-.34407-.3666663-.36557438-1.0021565-.02150438-1.3933104l3.03211685-3.59332978v-4.7666512c0-.53777725.38707874-.97777682.86017499-.97777682.47309621 0 .86015601.43999957.86015601.97777682v5.15776193c0 .24444421-.0859795.48888845-.2364912.68444375l-3.26870291 3.886706c-.172035.1954691-.40858312.2933115-.62362687.2933115z" fill="#171835"/>
  <path id="lightblue" d="m9.5 19c-5.24137468 0-9.5-4.2586047-9.5-9.5 0-5.24137468 4.25862532-9.5 9.5-9.5 5.2413953 0 9.5 4.25862532 9.5 9.5 0 5.2413953-4.2586047 9.5-9.5 9.5zm0-17c-4.14109975 0-7.5 3.35890025-7.5 7.5 0 4.1410591 3.35890025 7.5 7.5 7.5 4.1410591 0 7.5-3.3589409 7.5-7.5 0-4.14109975-3.3589409-7.5-7.5-7.5zm-2.77882098 12.5c-.21504375 0-.4300875-.0978424-.60212249-.2689318-.34407-.3666663-.36557438-1.0021565-.02150438-1.3933104l3.03211685-3.59332978v-4.7666512c0-.53777725.38707874-.97777682.86017499-.97777682.47309621 0 .86015601.43999957.86015601.97777682v5.15776193c0 .24444421-.0859795.48888845-.2364912.68444375l-3.26870291 3.886706c-.172035.1954691-.40858312.2933115-.62362687.2933115z" fill="#c0c8eb"/>
  <path id="orange" d="m9.5 19c-5.24137468 0-9.5-4.2586047-9.5-9.5 0-5.24137468 4.25862532-9.5 9.5-9.5 5.2413953 0 9.5 4.25862532 9.5 9.5 0 5.2413953-4.2586047 9.5-9.5 9.5zm0-17c-4.14109975 0-7.5 3.35890025-7.5 7.5 0 4.1410591 3.35890025 7.5 7.5 7.5 4.1410591 0 7.5-3.3589409 7.5-7.5 0-4.14109975-3.3589409-7.5-7.5-7.5zm-2.77882098 12.5c-.21504375 0-.4300875-.0978424-.60212249-.2689318-.34407-.3666663-.36557438-1.0021565-.02150438-1.3933104l3.03211685-3.59332978v-4.7666512c0-.53777725.38707874-.97777682.86017499-.97777682.47309621 0 .86015601.43999957.86015601.97777682v5.15776193c0 .24444421-.0859795.48888845-.2364912.68444375l-3.26870291 3.886706c-.172035.1954691-.40858312.2933115-.62362687.2933115z" fill="#f45400"/>
</svg>